<?xml version="1.0" standalone="no"?>
<!DOCTYPE svg PUBLIC "-//W3C//DTD SVG 20010904//EN"
 "http://www.w3.org/TR/2001/REC-SVG-20010904/DTD/svg10.dtd">
<svg version="1.0" xmlns="http://www.w3.org/2000/svg"
 width="1067.000000pt" height="800.000000pt" viewBox="0 0 1067.000000 800.000000"
 preserveAspectRatio="xMidYMid meet">
<metadata>
Created by potrace 1.13, written by Peter Selinger 2001-2015
</metadata>
<g transform="translate(0.000000,800.000000) scale(0.100000,-0.100000)"
fill="#000000" stroke="none">
<path d="M5155 6345 c-33 -25 -124 -93 -203 -152 -78 -60 -159 -121 -180 -136
-20 -16 -68 -54 -106 -85 -221 -184 -266 -237 -266 -317 0 -87 59 -134 251
-200 l108 -37 18 -46 c13 -34 18 -74 18 -147 0 -94 -2 -104 -37 -175 -62 -128
-174 -230 -294 -266 -38 -11 -46 -11 -59 2 -18 18 -19 47 -4 76 11 20 9 21
-19 15 -36 -7 -66 12 -61 38 5 26 65 65 100 65 34 0 44 25 44 110 0 93 -4 96
-238 173 l-207 69 -42 -21 c-24 -12 -90 -64 -148 -117 -166 -152 -510 -495
-510 -507 0 -7 7 -21 15 -31 8 -11 15 -28 15 -39 0 -10 4 -16 8 -13 17 10 121
-126 176 -229 33 -63 33 -69 -4 -50 -31 16 -87 20 -106 7 -17 -11 -41 -65 -39
-87 8 -79 18 -121 29 -130 7 -5 16 -27 20 -47 4 -21 14 -45 24 -54 19 -20 22
-30 27 -106 2 -31 6 -62 10 -68 4 -6 -5 -10 -22 -10 -15 0 -49 -13 -75 -28
-56 -32 -170 -140 -163 -153 3 -4 27 -18 53 -30 49 -22 56 -22 212 1 75 10
115 8 220 -12 115 -22 160 -56 160 -123 0 -33 -31 -45 -115 -45 -115 0 -145
-26 -101 -88 26 -37 47 -54 141 -115 59 -38 69 -67 30 -93 -35 -23 -99 -14
-174 25 -66 34 -91 40 -72 17 18 -21 142 -94 174 -102 40 -9 31 -32 -28 -66
-96 -54 -130 -68 -180 -68 l-50 -1 39 -15 c65 -24 140 -1 205 62 31 30 38 32
82 27 78 -9 136 4 178 42 40 36 81 109 81 144 0 11 3 21 8 21 8 0 61 -102 105
-200 14 -30 37 -82 52 -114 30 -65 39 -89 114 -311 28 -82 53 -162 56 -177 l5
-28 184 0 c206 0 216 2 341 72 147 82 160 90 230 141 233 170 369 302 416 401
61 129 20 253 -90 271 -60 11 -89 25 -125 66 -76 83 -101 182 -72 281 14 48
37 87 121 204 14 19 14 27 0 79 -16 64 -25 80 -25 47 0 -28 -15 -28 -34 0 -12
17 -16 48 -16 119 0 80 -3 101 -19 120 -18 22 -19 22 -45 6 -59 -39 -88 27
-44 104 39 69 98 98 274 132 l112 22 37 50 c37 49 140 170 180 211 11 11 56
62 100 113 151 175 340 357 410 396 83 47 249 82 423 92 l124 6 -6 30 c-3 16
-28 57 -55 91 -98 123 -115 198 -91 387 15 117 11 125 -58 134 -26 3 -57 8
-70 11 -20 4 -23 2 -17 -16 7 -21 6 -21 -27 -4 -18 9 -62 33 -98 54 -100 58
-154 68 -251 47 -85 -18 -141 -49 -194 -108 -44 -49 -62 -94 -70 -178 -7 -76
-45 -190 -71 -212 -12 -10 -17 -8 -29 7 -22 30 -215 406 -275 537 l-54 118
-156 79 c-85 44 -159 80 -165 80 -5 -1 -37 -21 -70 -45z"/>
<path d="M7473 5414 c-24 -14 -43 -32 -43 -39 0 -8 37 -32 83 -54 46 -22 89
-46 96 -54 10 -12 21 -13 77 -1 36 8 75 20 86 28 21 15 53 55 47 60 -14 9
-264 86 -282 86 -12 0 -41 -12 -64 -26z"/>
<path d="M6602 4675 c-74 -38 -76 -40 -46 -93 0 -1 25 3 53 9 59 12 121 63
121 98 0 32 -46 27 -128 -14z"/>
<path d="M6359 4487 c-210 -192 -316 -263 -429 -289 -39 -9 -57 -8 -98 6 -28
9 -54 16 -58 16 -4 0 14 -22 40 -50 61 -65 61 -95 2 -216 -80 -161 -148 -244
-200 -244 -11 0 -17 -3 -13 -6 3 -4 26 -6 50 -6 l44 1 12 -51 c17 -77 57 -133
111 -157 46 -22 311 -72 382 -73 32 0 54 10 111 48 69 47 198 155 335 281 l64
58 -31 115 c-17 63 -40 169 -51 235 -53 308 -59 331 -96 387 -20 29 -39 54
-43 56 -5 1 -64 -48 -132 -111z"/>
<path d="M2918 3429 c146 -137 163 -157 208 -249 14 -30 42 -127 61 -210 3
-14 18 -42 34 -62 30 -38 35 -54 20 -60 -5 -1 20 -15 55 -30 36 -14 61 -21 56
-15 -4 7 -7 18 -6 25 1 6 2 17 3 23 0 5 5 8 11 4 5 -3 16 6 25 19 9 14 25 28
36 31 10 4 19 14 19 24 0 9 5 22 10 27 8 8 -8 28 -52 67 -63 55 -77 77 -151
237 -41 87 -79 131 -145 164 -46 23 -234 86 -258 86 -7 0 27 -37 74 -81z"/>
<path d="M7437 2912 c-8 -9 -36 -60 -62 -112 -48 -97 -103 -181 -163 -251
l-34 -38 21 -57 c12 -30 31 -90 42 -132 22 -83 109 -315 116 -308 2 2 -3 34
-12 70 -19 84 -19 122 0 176 8 24 17 53 19 65 2 13 16 41 30 64 14 22 26 45
26 50 0 5 7 14 15 21 26 21 18 82 -17 135 l-32 49 42 122 c23 67 42 129 42
137 0 24 -16 28 -33 9z"/>
<path d="M2913 2133 c9 -11 17 -25 17 -31 0 -7 5 -12 10 -12 6 0 10 -7 10 -16
0 -8 14 -29 30 -46 17 -16 30 -36 30 -44 0 -8 6 -14 13 -14 9 0 8 -3 -2 -9
-10 -7 -11 -13 -2 -29 19 -36 9 -83 -35 -172 -63 -125 -107 -163 -381 -326
-271 -161 -315 -184 -358 -184 l-30 -1 24 -19 c19 -17 37 -20 110 -18 72 1 78
2 36 7 l-50 6 65 36 c104 57 151 84 220 124 36 21 83 47 105 58 204 102 463
312 451 367 -9 49 -47 138 -77 183 -27 41 -116 114 -181 148 -22 12 -22 11 -5
-8z"/>
<path d="M3930 1204 c-47 -12 -110 -23 -142 -23 -44 -1 -75 -10 -145 -42 -48
-23 -104 -45 -123 -48 l-35 -7 35 -18 c39 -21 197 -33 277 -21 66 10 36 24
-52 26 l-70 1 55 17 c61 19 290 126 290 135 0 3 -1 5 -2 5 -2 -1 -41 -12 -88
-25z"/>
</g>
</svg>
